<svg id="Capa_1" data-name="Capa 1" xmlns="http://www.w3.org/2000/svg" viewBox="0 0 1000 1000"><defs><style>.cls-1{fill:#1d1d1b;}</style></defs><title>ICONOS </title><path class="cls-1" d="M296.89,638.22C216.42,638.22,151,572.75,151,492.28s65.47-145.94,145.94-145.94,145.93,65.47,145.93,145.94S377.35,638.22,296.89,638.22Zm0-280c-73.93,0-134.07,60.14-134.07,134.06S223,626.34,296.89,626.34,431,566.21,431,492.28,370.81,358.22,296.89,358.22Z"/><path class="cls-1" d="M298,556.37a62.48,62.48,0,1,1,62.48-62.48A62.55,62.55,0,0,1,298,556.37Zm0-113.08a50.61,50.61,0,1,0,50.61,50.6A50.66,50.66,0,0,0,298,443.29Z"/><path class="cls-1" d="M214.66,444l-11-4.57c.64-1.53,16.11-37.66,56.79-48.76,39.77-10.84,58.74-3.58,59.53-3.25l-4.41,11c-.1,0-16.59-5.93-52,3.7C228.46,411.73,214.78,443.7,214.66,444Z"/><path class="cls-1" d="M513.56,854.9c-80.47,0-145.94-65.47-145.94-145.94S433.09,563,513.56,563,659.5,628.49,659.5,709,594,854.9,513.56,854.9Zm0-280C439.64,574.9,379.5,635,379.5,709S439.64,843,513.56,843,647.62,782.88,647.62,709,587.49,574.9,513.56,574.9Z"/><path class="cls-1" d="M514.64,773.05a62.48,62.48,0,1,1,62.48-62.48A62.55,62.55,0,0,1,514.64,773.05Zm0-113.07a50.6,50.6,0,1,0,50.6,50.59A50.66,50.66,0,0,0,514.64,660Z"/><path class="cls-1" d="M431.32,660.72l-11-4.58c.64-1.53,16.11-37.67,56.78-48.76,39.8-10.87,58.76-3.59,59.54-3.27l-4.41,11c-.1,0-16.59-5.94-52,3.71C445.33,628.36,431.46,660.4,431.32,660.72Z"/><path class="cls-1" d="M515.89,415.14C435.43,415.14,370,349.67,370,269.2s65.48-145.93,145.94-145.93S661.83,188.74,661.83,269.2,596.36,415.14,515.89,415.14Zm0-280c-73.92,0-134.06,60.14-134.06,134.06S442,403.27,515.89,403.27,650,343.13,650,269.2,589.82,135.14,515.89,135.14Z"/><path class="cls-1" d="M517,333.3a62.48,62.48,0,1,1,62.47-62.47A62.56,62.56,0,0,1,517,333.3Zm0-113.07a50.6,50.6,0,1,0,50.59,50.6A50.65,50.65,0,0,0,517,220.23Z"/><path class="cls-1" d="M433.66,221l-11-4.57c.64-1.53,16.11-37.66,56.77-48.76,39.81-10.88,58.75-3.61,59.55-3.27l-4.41,11c-.09,0-16.61-5.95-52,3.71C447.46,188.67,433.79,220.63,433.66,221Z"/><path class="cls-1" d="M735.48,634.73c-80.47,0-145.94-65.47-145.94-145.94S655,342.85,735.48,342.85s145.93,65.47,145.93,145.94S816,634.73,735.48,634.73Zm0-280c-73.93,0-134.06,60.13-134.06,134.06s60.13,134.06,134.06,134.06,134-60.13,134-134.06S809.39,354.73,735.48,354.73Z"/><path class="cls-1" d="M736.55,552.88A62.47,62.47,0,1,1,799,490.4,62.54,62.54,0,0,1,736.55,552.88Zm0-113.07a50.6,50.6,0,1,0,50.6,50.59A50.65,50.65,0,0,0,736.55,439.81Z"/><path class="cls-1" d="M653.23,440.55l-11-4.58c.65-1.53,16.12-37.67,56.78-48.76,39.81-10.87,58.76-3.59,59.55-3.27l-4.41,11c-.09,0-16.6-5.94-52,3.71C667.25,408.2,653.37,440.23,653.23,440.55Z"/></svg>