<svg id="Capa_1" data-name="Capa 1" xmlns="http://www.w3.org/2000/svg" viewBox="0 0 1000 1000"><defs><style>.cls-1{fill:#1d1d1b;}</style></defs><title>ICONOS </title><path class="cls-1" d="M497.11,744c-169.84,0-308-138.17-308-308s138.18-308,308-308,308,138.17,308,308S667,744,497.11,744Zm0-604.14C333.82,139.9,201,272.74,201,436S333.82,732.17,497.11,732.17,793.24,599.32,793.24,436,660.4,139.9,497.11,139.9Z"/><path class="cls-1" d="M499.43,567.45a127.94,127.94,0,0,1,0-255.87c70.54,0,127.92,57.39,127.92,127.94A128.07,128.07,0,0,1,499.43,567.45Zm0-244A116.06,116.06,0,1,0,615.48,439.52,116.18,116.18,0,0,0,499.43,323.46Z"/><path class="cls-1" d="M572,654.18l-1.07-11.83c1-.09,100.92-10.45,146.11-115L728,532.11C679.86,643.28,573.06,654.09,572,654.18Z"/><path class="cls-1" d="M479,801c-192.72,0-278.13-140.52-279-142L210.21,653c.85,1.45,88.06,144.42,286.63,135.76l.53,11.85C491.15,800.87,485,801,479,801Z"/><rect class="cls-1" x="540.47" y="795.69" width="168.08" height="11.88"/><rect class="cls-1" x="483.93" y="849.9" width="72.04" height="11.88"/><rect class="cls-1" x="575.34" y="849.9" width="37.17" height="11.88"/><rect class="cls-1" x="633.42" y="849.13" width="184.35" height="11.88"/></svg>