<svg id="Capa_1" data-name="Capa 1" xmlns="http://www.w3.org/2000/svg" viewBox="0 0 1000 1000"><defs><style>.cls-1{fill:#1d1d1b;}</style></defs><title>ICONOS </title><path class="cls-1" d="M246.69,528.67,118.9,450.3l137.26-79.64,119.29,78.39ZM142.07,450.58l104.59,64.15,106.71-66-97.6-64.13Z"/><path class="cls-1" d="M400.05,434.18,272.26,355.81l137.26-79.65,119.29,78.39ZM295.43,356.09,400,420.24l106.7-66-97.6-64.13Z"/><path class="cls-1" d="M547.21,525.58,419.43,447.21l137.26-79.65L676,446ZM442.6,447.49l104.58,64.15,106.71-66L556.3,381.53Z"/><path class="cls-1" d="M398.49,613.87,270.72,535.5,408,455.86l119.29,78.39Zm-104.6-78.09,104.58,64.15,106.7-66-97.59-64.13Z"/><path class="cls-1" d="M700.57,437.28,572.79,358.91l137.26-79.65,119.28,78.39ZM596,359.19l104.58,64.15,106.71-66-97.59-64.13Z"/><path class="cls-1" d="M686.63,615.43,558.85,537.06,696.11,457.4l119.28,78.39ZM582,537.34,686.6,601.49l106.71-66-97.59-64.12Z"/><path class="cls-1" d="M531.72,702.18,403.93,623.81,541.2,544.16l119.28,78.39ZM427.11,624.09,531.7,688.24l106.7-66-97.6-64.13Z"/><path class="cls-1" d="M379.9,793.57,252.13,715.21l137.26-79.66,119.28,78.39ZM275.3,715.48l104.58,64.15,106.7-66L389,649.51Z"/></svg>