<svg id="Capa_1" data-name="Capa 1" xmlns="http://www.w3.org/2000/svg" viewBox="0 0 1000 1000"><defs><style>.cls-1{fill:#1d1d1b;}</style></defs><title>ICONOS </title><path class="cls-1" d="M450.93,580.78a12.33,12.33,0,0,1-3.3-.46c-3.67-1.07-9.73-4.85-9.23-18.2.44-11.67.54-24.22.56-29.61-39.2-33.95-97.33-83.89-102.21-87.05-3.63-1.13-31.37-1.62-54.7-1.2a11.41,11.41,0,0,1-7.9-3c-3.1-2.88-4.66-7.3-4.61-13.12h0l.78-84.42c.68-9.18,6.46-26,23.47-26.78,16.21-.78,402.13-.05,418.54,0,10.17,1.39,27.63,8.76,26.85,27.1-.71,16.19.55,71.68.74,79.91a12.93,12.93,0,0,1-.36,9.57c-1.21,2.59-4,6-10.41,7.45-9.41,2.18-42.47,3-51.82,3.2-11.25,9.26-78.61,64.76-92.08,76.12a144.94,144.94,0,0,1-13,9.6c-7.3,4.93-8.14,5.87-8.14,9.08v25.56a14.73,14.73,0,0,1-9,13.2c-5.37,2.31-58,2.8-101.48,2.81A12.23,12.23,0,0,1,450.93,580.78ZM302.58,432.27c18.62,0,36.06.67,40.06,2.88,5.36,3,82.61,69.77,106.16,90.17l2.05,1.77v2.72s0,17.16-.58,32.75c-.2,5.17.92,6.47.93,6.48l1.65-.44c43.52,0,92.69-.71,98-2a2.71,2.71,0,0,0,1.35-2.3V538.91c0-9.89,6.2-14.08,13.38-18.92a131,131,0,0,0,12-8.86c14.73-12.4,93.78-77.5,93.78-77.5l1.59-1.32,2.07,0c11.68-.21,43.68-1.15,51.43-2.95a4.65,4.65,0,0,0,2.38-1l-.59-1.19-.19-2c-.06-2.6-1.54-63.92-.77-81.72.54-12.17-15.18-14.68-15.84-14.78-2.12-.07-177.33-.29-300.11-.29-62.64,0-111.62.09-117,.34-10.91.52-12.17,15.29-12.17,15.44l-.77,84c0,2.86.58,4.08.8,4.29C288.76,432.36,295.75,432.27,302.58,432.27Z"/><path class="cls-1" d="M667.41,722.21c-218-.77-330.42-1.94-334.43-3.48-8.37-3.23-9.15-13-9.21-14.13s-.79-23.22.82-35.19c1.78-13.39,14.7-16.27,20.76-16.39,40.61,1.11,86.14,1.57,98.61.53,1.05-10.72,1.44-46.21,1.21-78.38l-.05-5.93,112.48-1.08.31,5.67c.12,2,2.73,50,2.35,65.53a75.83,75.83,0,0,0,.27,10.22c20.07.2,92.6,1,103.38,3.18,6.51,1.3,10.91,3.88,13.13,7.69a10.49,10.49,0,0,1,1.35,6.72c.18,4.67,1.12,30.19.76,39.28C678.66,718.33,671.25,722,667.41,722.21ZM344.91,664.9c-1.49,0-7.79.35-8.54,6.08-1.48,11-.75,32.87-.73,33.09.08,1.1.78,3.26,1.61,3.57,8.39,1.09,202,2.25,329.79,2.7-.81,0,.1-1.11.23-4.37.37-9.34-.76-38.74-.77-39l0-.78a12.37,12.37,0,0,0-4.88-1.76c-8.12-1.62-67.47-2.67-105.38-3l-1.83-.3c-4.75-1.58-6.37-7.56-6-22.06.3-12-1.33-45.49-2-58.91l-89.28.85c.44,76.84-2,79.63-3.64,81.49-2.24,2.56-4.55,5.18-108.42,2.41Z"/><path class="cls-1" d="M281.22,424.22H133.41V353.67H281.22ZM145.29,412.34h124v-46.8h-124Z"/><path class="cls-1" d="M878.4,424.22H730.59V353.67H878.4ZM742.46,412.34H866.53v-46.8H742.46Z"/></svg>