<svg id="Capa_1" data-name="Capa 1" xmlns="http://www.w3.org/2000/svg" viewBox="0 0 110.96 110.96"><defs><style>.cls-1{fill:#fff;}.cls-2{fill:#0388a6;fill-rule:evenodd;}</style></defs><title>redes-iconos</title><path class="cls-1" d="M55.48,111A55.48,55.48,0,1,1,111,55.48,55.53,55.53,0,0,1,55.48,111"/><path class="cls-2" d="M48.11,50.94V78.82a.73.73,0,0,0,.72.73H59.19a.73.73,0,0,0,.72-.73V50.48h7.51a.74.74,0,0,0,.73-.66l.72-8.54a.73.73,0,0,0-.73-.79H59.91V34.43a2.58,2.58,0,0,1,2.58-2.57h5.78a.73.73,0,0,0,.73-.73V22.59a.73.73,0,0,0-.73-.72H58.49A10.39,10.39,0,0,0,48.11,32.26v8.23H42.93a.73.73,0,0,0-.73.73v8.53a.73.73,0,0,0,.73.73h5.18Z"/></svg>