<svg id="Capa_1" data-name="Capa 1" xmlns="http://www.w3.org/2000/svg" viewBox="0 0 110.96 110.96"><defs><style>.cls-1{fill:#fff;}.cls-2{fill:#0388a6;}</style></defs><title>redes-iconos</title><path class="cls-1" d="M55.48,111A55.48,55.48,0,1,1,111,55.48,55.54,55.54,0,0,1,55.48,111"/><path class="cls-2" d="M74.6,36.39H40.09A13.31,13.31,0,0,0,26.78,49.7V61.29A13.31,13.31,0,0,0,40.09,74.6H74.6A13.31,13.31,0,0,0,87.92,61.29V49.71A13.32,13.32,0,0,0,74.6,36.39ZM67.72,55.88,52.39,63.42a1.86,1.86,0,0,1-2.68-1.67V47.14a1.33,1.33,0,0,1,2-1.18L67.05,54.3c.61.36,1.29,1.24.67,1.58"/></svg>