<svg id="Capa_1" data-name="Capa 1" xmlns="http://www.w3.org/2000/svg" viewBox="0 0 110.96 110.96"><defs><style>.cls-1{fill:#fff;}.cls-2{fill:#0388a6;}</style></defs><title>redes-iconos</title><path class="cls-1" d="M55.48,111A55.48,55.48,0,1,1,111,55.48,55.54,55.54,0,0,1,55.48,111"/><path class="cls-2" d="M66.52,60.26c-1.19-.72-2.74-1.51-4.14-.94-1.08.44-1.77,2.13-2.46,3a1.05,1.05,0,0,1-1.34.28,18.73,18.73,0,0,1-9.37-8A1.16,1.16,0,0,1,49.36,53a6.35,6.35,0,0,0,1.7-2.76A6.09,6.09,0,0,0,50.3,47c-.56-1.21-1.2-2.95-2.41-3.64a3.33,3.33,0,0,0-3.6.54,7.26,7.26,0,0,0-2.52,5.77A7.54,7.54,0,0,0,42,51.48a14.67,14.67,0,0,0,1.76,4,29.11,29.11,0,0,0,9.79,10.2,24.39,24.39,0,0,0,5,2.37c1.95.64,3.68,1.3,5.78.91a7.06,7.06,0,0,0,5.25-3.91,3.39,3.39,0,0,0,.23-2c-.3-1.38-2.14-2.2-3.26-2.85"/><path class="cls-2" d="M55.76,27.3A28.88,28.88,0,0,0,30.45,70.21L26.25,85.9,42,81.66A28.92,28.92,0,1,0,55.76,27.3m0,52.4a23.4,23.4,0,0,1-12-3.31l-1-.6L34,78.15l2.35-8.74-.61-1a23.45,23.45,0,1,1,20,11.29"/></svg>