<svg id="Capa_1" data-name="Capa 1" xmlns="http://www.w3.org/2000/svg" viewBox="0 0 110.96 110.96"><defs><style>.cls-1{fill:#fff;}.cls-2{fill:#0388a6;}</style></defs><title>redes-iconos</title><path class="cls-1" d="M55.48,111A55.48,55.48,0,1,1,111,55.48,55.54,55.54,0,0,1,55.48,111"/><path class="cls-2" d="M71.75,39.57a3.42,3.42,0,1,1-3.42-3.42,3.41,3.41,0,0,1,3.42,3.42M67.5,54.86A14.35,14.35,0,1,1,53.15,40.54,14.36,14.36,0,0,1,67.5,54.86m-5.16,0a9.19,9.19,0,1,0-9.19,9.2,9.19,9.19,0,0,0,9.19-9.2m19.84-11.5a17.48,17.48,0,0,0-17.49-17.5H40.81a17.49,17.49,0,0,0-17.49,17.5V67.22a17.5,17.5,0,0,0,17.49,17.5H64.69a17.49,17.49,0,0,0,17.49-17.5ZM76.44,67a12,12,0,0,1-12,12H41.08a12,12,0,0,1-12-12V43.61a12,12,0,0,1,12-12H64.43a12,12,0,0,1,12,12Z"/></svg>