<svg id="Capa_1" data-name="Capa 1" xmlns="http://www.w3.org/2000/svg" viewBox="0 0 110.96 110.96"><defs><style>.cls-1{fill:#fff;}.cls-2{fill:#0388a6;}</style></defs><title>redes-iconos</title><path class="cls-1" d="M55.48,111A55.48,55.48,0,1,1,111,55.48,55.54,55.54,0,0,1,55.48,111"/><path class="cls-2" d="M30,39H40.86v35H30ZM35.4,21.63a6.31,6.31,0,1,1-6.32,6.31,6.31,6.31,0,0,1,6.32-6.31M47.68,74.06H58.57V56.73c0-4.57.86-9,6.53-9S70.76,53,70.76,57v17H81.64V54.85c0-9.43-2-16.69-13.06-16.69a11.47,11.47,0,0,0-10.31,5.66h-.14V39H47.68Z"/></svg>